<svg xmlns="http://www.w3.org/2000/svg" width="24.495" height="23.002" viewBox="0 0 24.495 23.002">
  <g id="noun_user_feedback_1213169" data-name="noun_user feedback_1213169" transform="translate(-14.267 -17.8)">
    <g id="Group_10417" data-name="Group 10417" transform="translate(14.467 18)">
      <g id="Group_10416" data-name="Group 10416" transform="translate(0)">
        <path id="Path_20494" data-name="Path 20494" d="M20.89,38.937l2.419-2h8.471a6.1,6.1,0,0,0,6.1-6.1V24.781a6.1,6.1,0,0,0-6.1-6.1H21.248a6.1,6.1,0,0,0-6.1,6.1V31.87a5.067,5.067,0,0,0,5.067,5.067h.678ZM21.248,18H31.781a6.781,6.781,0,0,1,6.781,6.781v6.053a6.781,6.781,0,0,1-6.781,6.781H23.553l-3.342,2.762V37.615a5.745,5.745,0,0,1-5.745-5.745V24.781A6.781,6.781,0,0,1,21.248,18Z" transform="translate(-14.467 -18)" fill="#90a2b4" stroke="#90a2b4" stroke-width="0.4"/>
        <path id="Path_20495" data-name="Path 20495" d="M45.493,38.755a4.764,4.764,0,0,1-.11,1.018l-.058.267H36.168l-.058-.267a4.755,4.755,0,0,1,2.515-5.266,3.06,3.06,0,1,1,4.3.031A4.748,4.748,0,0,1,45.493,38.755Zm-.678,0a4.07,4.07,0,0,0-2.649-3.814l-.628-.234.56-.368a2.382,2.382,0,1,0-2.64-.019l.555.376-.631.225a4.075,4.075,0,0,0-2.659,4.441H44.77A4.1,4.1,0,0,0,44.815,38.755Z" transform="translate(-28.699 -25.46)" fill="#90a2b4" stroke="#90a2b4" stroke-width="0.4"/>
      </g>
    </g>
  </g>
</svg>
