<svg xmlns="http://www.w3.org/2000/svg" width="19.76" height="16.055" viewBox="0 0 19.76 16.055">
  <g id="download" transform="translate(0 -2.25)">
    <path id="Path_20367" data-name="Path 20367" d="M.617,18a.617.617,0,0,1,.617.617V22.94A1.235,1.235,0,0,0,2.47,24.175H17.29a1.235,1.235,0,0,0,1.235-1.235V18.617a.617.617,0,0,1,1.235,0V22.94a2.47,2.47,0,0,1-2.47,2.47H2.47A2.47,2.47,0,0,1,0,22.94V18.617A.617.617,0,0,1,.617,18Z" transform="translate(0 -7.105)" fill="#90a2b4" fill-rule="evenodd"/>
    <path id="Path_20368" data-name="Path 20368" d="M11.1,16.726a.617.617,0,0,1,.873,0l2.832,2.832,2.832-2.832a.617.617,0,0,1,.873.873l-3.268,3.269a.617.617,0,0,1-.874,0L11.1,17.6a.617.617,0,0,1,0-.873Z" transform="translate(-4.926 -6.449)" fill="#90a2b4" fill-rule="evenodd"/>
    <path id="Path_20369" data-name="Path 20369" d="M17.492,2.25a.617.617,0,0,1,.617.617v9.88a.617.617,0,0,1-1.235,0V2.867A.617.617,0,0,1,17.492,2.25Z" transform="translate(-7.613)" fill="#90a2b4" fill-rule="evenodd"/>
  </g>
</svg>
