<svg xmlns="http://www.w3.org/2000/svg" width="54.835" height="54.835" viewBox="0 0 54.835 54.835">
  <g id="Group_11073" data-name="Group 11073" transform="translate(109.015 -116.003)">
    <circle id="Ellipse_1491" data-name="Ellipse 1491" cx="27.417" cy="27.417" r="27.417" transform="translate(-109.015 116.003)" fill="#302a5d"/>
    <g id="planet" transform="translate(-96.579 133.119)">
      <path id="Path_19563" data-name="Path 19563" d="M6.66,20.135a.469.469,0,0,0-.733.483,10.3,10.3,0,0,0,13.117,7.557.469.469,0,0,0,.045-.878,65.552,65.552,0,0,1-6.408-3.255A65.914,65.914,0,0,1,6.66,20.134Z" transform="translate(-0.992 -8.042)" fill="#fff"/>
      <path id="Path_19564" data-name="Path 19564" d="M28.838,20.814c-.246-.326-.534-.669-.861-1.026a.926.926,0,0,0-1.554.3.092.092,0,0,1-.01.027.921.921,0,0,0,.184.94c1.331,1.463,1.547,2.254,1.492,2.421-.117.131-1,.4-3.4-.206q-.517-.132-1.13-.32-.4-.122-.807-.263a10.346,10.346,0,0,0,1.144-1.595l.031-.052a10.265,10.265,0,0,0,1.363-5.114,10.468,10.468,0,0,0-.058-1.112A10.3,10.3,0,0,0,6.074,10.76c-.009.017-.02.034-.03.051A10.27,10.27,0,0,0,5.235,12.6q-.327-.285-.632-.566c-.315-.293-.6-.564-.844-.819C2.029,9.441,1.822,8.543,1.877,8.376c.117-.131.91-.344,2.846.077a.926.926,0,0,0,.908-.311l.021-.026a.921.921,0,0,0-.508-1.488,13.894,13.894,0,0,0-1.391-.241c-1.8-.206-2.975.147-3.5,1.054A2.135,2.135,0,0,0,.1,9.114a10.261,10.261,0,0,0,3.02,4.09c.505.476,1.057.958,1.646,1.442.429.351.878.706,1.34,1.058q.463.351.946.7t.977.69c1.487,1.031,3.059,2.02,4.6,2.908q.839.484,1.676.936t1.661.867c1.282.643,2.537,1.224,3.737,1.722q.772.32,1.511.594c.7.259,1.368.486,2.008.678l.064.019a14.746,14.746,0,0,0,3.774.7h.1a2.7,2.7,0,0,0,2.55-1.112c.532-.914.239-2.126-.87-3.6Z" transform="translate(-0.001 -5.625)" fill="#fff"/>
    </g>
  </g>
</svg>
