<svg xmlns="http://www.w3.org/2000/svg" width="39" height="39" viewBox="0 0 39 39">
  <g id="_1936915_communication_mail_origami_paper_plane_icon" data-name="1936915_communication_mail_origami_paper_plane_icon" transform="translate(0 0.2)">
    <circle id="Ellipse_1510" data-name="Ellipse 1510" cx="19.5" cy="19.5" r="19.5" transform="translate(0 -0.2)" fill="#6ae5e1"/>
    <path id="Path_20260" data-name="Path 20260" d="M62.944,27.2,35.4,37.665l.7,8.979Z" transform="translate(-24.662 -19.088)" fill="#fff"/>
    <path id="Path_20261" data-name="Path 20261" d="M42.46,72.773,37,76.413,39.366,69.8Z" transform="translate(-25.776 -48.766)" fill="#d4d6d6"/>
    <path id="Path_20262" data-name="Path 20262" d="M37.021,46.269a.276.276,0,0,1-.243-.121.326.326,0,0,1,.061-.425L63.685,26.278a.3.3,0,0,1,.364.485L37.173,46.208C37.142,46.269,37.082,46.269,37.021,46.269Z" transform="translate(-25.585 -18.41)" fill="#074370"/>
    <path id="Path_20263" data-name="Path 20263" d="M14.2,32.084,48.175,27.2,30.035,45.734Z" transform="translate(-9.893 -19.088)" fill="#fff"/>
    <path id="Path_20264" data-name="Path 20264" d="M61.388,29.2,35.3,39.392l.516,8.918,2.639-6.977Z" transform="translate(-24.592 -20.482)" fill="#eaeaea"/>
    <path id="Path_20265" data-name="Path 20265" d="M29.381,45.4a.562.562,0,0,1-.212-.061l-6.613-5.7a.3.3,0,0,1,.394-.455l6.4,5.521L46.642,27.014l-32.4,4.641,6.188,5.339a.3.3,0,1,1-.394.455l-6.674-5.764a.308.308,0,0,1-.091-.3.257.257,0,0,1,.243-.212l33.944-4.884a.308.308,0,0,1,.3.152.331.331,0,0,1-.061.364l-18.11,18.5A.275.275,0,0,1,29.381,45.4Z" transform="translate(-9.239 -18.448)" fill="#074370"/>
    <path id="Path_20266" data-name="Path 20266" d="M36.611,46.267H36.52a.348.348,0,0,1-.212-.394l2.123-6.795a.311.311,0,0,1,.152-.182l19.323-9.859L36.551,37.379a.307.307,0,1,1-.212-.576l27-10.556a.3.3,0,0,1,.243.546L38.947,39.381l-2.063,6.674A.26.26,0,0,1,36.611,46.267Z" transform="translate(-25.175 -18.408)" fill="#074370"/>
    <path id="Path_20267" data-name="Path 20267" d="M35.4,70.216a.3.3,0,0,1-.3-.273l-.7-9.009a.3.3,0,1,1,.607-.061l.7,9.009a.312.312,0,0,1-.3.334Z" transform="translate(-23.965 -42.357)" fill="#074370"/>
    <path id="Path_20268" data-name="Path 20268" d="M76.193,36.1a.327.327,0,0,1-.3-.243.284.284,0,0,1,.243-.334l4.034-.637a.292.292,0,1,1,.091.576l-4.034.637Z" transform="translate(-52.865 -24.442)" fill="#0c508e" opacity="0.5"/>
    <path id="Path_20269" data-name="Path 20269" d="M24.493,41.377a.327.327,0,0,1-.3-.243.284.284,0,0,1,.243-.334l12.043-1.911a.292.292,0,0,1,.091.576L24.523,41.377Z" transform="translate(-16.848 -27.228)" fill="#0c508e" opacity="0.5"/>
    <path id="Path_20270" data-name="Path 20270" d="M66.3,61.6a.275.275,0,0,1-.212-.091.293.293,0,0,1,0-.425l8.494-8.19a.3.3,0,0,1,.425.425l-8.494,8.19A.328.328,0,0,1,66.3,61.6Z" transform="translate(-45.979 -36.923)" fill="#0c508e" opacity="0.5"/>
    <path id="Path_20271" data-name="Path 20271" d="M14.213,73.427a1.213,1.213,0,1,1,1.213-1.213A1.217,1.217,0,0,1,14.213,73.427Zm0-1.85a.637.637,0,1,0,.637.637A.622.622,0,0,0,14.213,71.576Z" transform="translate(-9.057 -49.602)" fill="#fff"/>
    <path id="Path_20272" data-name="Path 20272" d="M81.213,100.427a1.213,1.213,0,1,1,1.213-1.213A1.217,1.217,0,0,1,81.213,100.427Zm0-1.85a.637.637,0,1,0,.637.637A.622.622,0,0,0,81.213,98.576Z" transform="translate(-55.732 -68.412)" fill="#fff"/>
    <path id="Path_20273" data-name="Path 20273" d="M85.213,19.427a1.213,1.213,0,1,1,1.213-1.213A1.217,1.217,0,0,1,85.213,19.427Zm0-1.85a.637.637,0,1,0,.637.637A.622.622,0,0,0,85.213,17.576Z" transform="translate(-58.519 -11.982)" fill="#fff"/>
    <path id="Path_20274" data-name="Path 20274" d="M52.555,17.577a.324.324,0,0,0-.3-.273l-.576-.091c-.152-.03-.334-.182-.334-.334L51.25,16.3c-.03-.152-.152-.3-.273-.3a.324.324,0,0,0-.273.3l-.091.576c-.03.152-.182.334-.334.334L49.7,17.3c-.152.03-.3.152-.3.273a.324.324,0,0,0,.3.273l.576.091c.152.03.334.182.334.334l.091.576c.03.152.152.3.273.3a.278.278,0,0,0,.243-.3l.091-.637a.465.465,0,0,1,.334-.334l.546-.03C52.4,17.82,52.555,17.7,52.555,17.577Z" transform="translate(-34.415 -11.286)" fill="#fff"/>
    <path id="Path_20275" data-name="Path 20275" d="M101.255,73.177a.324.324,0,0,0-.3-.273l-.576-.091c-.152-.03-.334-.182-.334-.334L99.95,71.9c-.03-.152-.152-.3-.273-.3a.324.324,0,0,0-.273.3l-.091.576c-.03.152-.182.334-.334.334L98.4,72.9c-.152.03-.3.152-.3.273a.324.324,0,0,0,.3.273l.576.091c.152.03.334.182.334.334l.091.576c.03.152.152.3.273.3a.278.278,0,0,0,.243-.3l.091-.637a.465.465,0,0,1,.334-.334l.546-.03Q101.255,73.359,101.255,73.177Z" transform="translate(-68.342 -50.02)" fill="#fff"/>
    <path id="Path_20276" data-name="Path 20276" d="M39,102.82c0,.334.516.607,1,.607h4.216c.516,0,.819-.273.819-.607s.485-.607.91-.607a.557.557,0,0,0,.607-.607c0-.334-.3-.607-.819-.607H42.64c-.516,0-.91.273-.91.607s-.3.607-.819.607H40C39.516,102.213,39,102.486,39,102.82Z" transform="translate(-27.17 -70.502)" fill="#fff"/>
  </g>
</svg>
