<svg xmlns="http://www.w3.org/2000/svg" width="16.304" height="15.085" viewBox="0 0 16.304 15.085">
  <g id="users-line" transform="translate(-3 -4.244)">
    <path id="Path_19916" data-name="Path 19916" d="M15.663,12.872A2.636,2.636,0,1,0,13,10.209,2.667,2.667,0,0,0,15.663,12.872Zm-.054-4.185h0a1.577,1.577,0,0,1,1.576,1.576,1.549,1.549,0,0,1-3.1,0,1.567,1.567,0,0,1,1.522-1.576Z" transform="translate(-4.565 -1.532)" fill="#90a2b4"/>
    <path id="Path_19917" data-name="Path 19917" d="M28.728,15.555a5.381,5.381,0,0,0-3.8-1.359h-.435A3.624,3.624,0,0,1,24,15.338a5.273,5.273,0,0,1,.924-.054,4.52,4.52,0,0,1,2.88.87v3.913h1.087V15.718l-.163-.163Z" transform="translate(-9.587 -4.542)" fill="#90a2b4"/>
    <path id="Path_19918" data-name="Path 19918" d="M22.761,6.2a1.327,1.327,0,0,1,2.446,1.033,1.356,1.356,0,0,1-1.2.815A.925.925,0,0,1,23.63,8a3.85,3.85,0,0,1,.054.761v.326c.109,0,.217.054.326.054A2.419,2.419,0,0,0,24.065,4.3,2.33,2.33,0,0,0,22,5.5a2.32,2.32,0,0,1,.761.707Z" transform="translate(-8.674 -0.026)" fill="#90a2b4"/>
    <path id="Path_19919" data-name="Path 19919" d="M7.891,15.438A3.623,3.623,0,0,1,7.4,14.3H6.967a5.592,5.592,0,0,0-3.8,1.3L3,15.764v4.348H4.087V16.2a4.62,4.62,0,0,1,2.88-.87A4.786,4.786,0,0,1,7.891,15.438Z" transform="translate(0 -4.587)" fill="#90a2b4"/>
    <path id="Path_19920" data-name="Path 19920" d="M8.266,9.057A.689.689,0,0,0,8.592,9V8.677a3.342,3.342,0,0,1,.054-.761.925.925,0,0,1-.38.054,1.3,1.3,0,0,1,0-2.609,1.373,1.373,0,0,1,1.25.815,5.411,5.411,0,0,1,.815-.761A2.414,2.414,0,1,0,8.266,9.057Z" transform="translate(-1.298 0)" fill="#90a2b4"/>
    <path id="Path_19921" data-name="Path 19921" d="M18.75,21.008l-.109-.163A5.485,5.485,0,0,0,14.4,19a5.6,5.6,0,0,0-4.293,1.848L10,21.008v4.13a.916.916,0,0,0,.924.924H17.88a.952.952,0,0,0,.924-.924v-4.13Zm-1.087,3.967H11.087V21.389a4.638,4.638,0,0,1,3.315-1.3,4.383,4.383,0,0,1,3.261,1.3Z" transform="translate(-3.196 -6.734)" fill="#90a2b4"/>
  </g>
</svg>
