<svg xmlns="http://www.w3.org/2000/svg" width="14.598" height="14.598" viewBox="0 0 14.598 14.598">
  <path id="bxs-badge-check" d="M16.112,7.76a2.873,2.873,0,0,0,.026-.381,2.936,2.936,0,0,0-3.3-2.894,2.913,2.913,0,0,0-5.079,0,2.934,2.934,0,0,0-3.3,2.894,2.873,2.873,0,0,0,.026.381,2.913,2.913,0,0,0,0,5.079,2.9,2.9,0,0,0-.026.38,2.936,2.936,0,0,0,3.3,2.894,2.913,2.913,0,0,0,5.079,0,2.938,2.938,0,0,0,3.3-2.894,2.873,2.873,0,0,0-.026-.381,2.913,2.913,0,0,0,0-5.079ZM9.536,13.522,6.86,10.811,7.9,9.786l1.648,1.669L12.7,8.321l1.028,1.036-4.2,4.165Z" transform="translate(-3 -3)" fill="#0084ff"/>
</svg>
