<svg xmlns="http://www.w3.org/2000/svg" width="83" height="42" viewBox="0 0 83 42">
  <g id="Group_10462" data-name="Group 10462" transform="translate(-1066 -300)">
    <circle id="Ellipse_1614" data-name="Ellipse 1614" cx="7.5" cy="7.5" r="7.5" transform="translate(1134 300)" fill="#d4e9ff"/>
    <circle id="Ellipse_1615" data-name="Ellipse 1615" cx="5" cy="5" r="5" transform="translate(1066 321)" fill="#d4e9ff"/>
    <circle id="Ellipse_1616" data-name="Ellipse 1616" cx="4" cy="4" r="4" transform="translate(1078 311)" fill="#d4e9ff"/>
    <path id="layerorder" d="M34.629,19.652,21.34,26.3A7.39,7.39,0,0,1,18,27a7.39,7.39,0,0,1-3.34-.7L1.371,19.652Q0,18.949,0,17.982t1.371-1.634l3.445-1.723,9.844,4.922a7.39,7.39,0,0,0,3.34.7,7.39,7.39,0,0,0,3.34-.7l9.844-4.922,3.445,1.723Q36,17.016,36,18t-1.371,1.652Zm0-9L21.34,17.3A7.39,7.39,0,0,1,18,18a7.39,7.39,0,0,1-3.34-.7L1.371,10.652Q0,9.949,0,8.982T1.371,7.313L14.66.668A7.718,7.718,0,0,1,18,0a7.718,7.718,0,0,1,3.34.668L34.629,7.313Q36,8.016,36,8.983T34.629,10.652ZM18,2.25,2.25,9,18,15.75,33.75,9ZM1.371,25.348l3.445-1.723,2.461,1.23L2.25,27,18,33.75,33.75,27l-5.027-2.145,2.461-1.23,3.445,1.723Q36,26.016,36,27t-1.371,1.652L21.34,35.3A7.39,7.39,0,0,1,18,36a7.39,7.39,0,0,1-3.34-.7L1.371,28.652Q0,27.984,0,27T1.371,25.348Z" transform="translate(1092 306)" fill="#2680eb"/>
    <rect id="Rectangle_13650" data-name="Rectangle 13650" width="10.602" height="8.378" rx="2" transform="matrix(0.809, -0.588, 0.588, 0.809, 1103.249, 314.428)" fill="#d8e6ff" opacity="0.45"/>
  </g>
</svg>
