<svg xmlns="http://www.w3.org/2000/svg" width="13.781" height="25.177" viewBox="0 0 13.781 25.177">
  <g id="Group_10413" data-name="Group 10413" transform="translate(-24 -2.5)">
    <path id="Path_20479" data-name="Path 20479" d="M37.675,64.864a22.862,22.862,0,0,1-3.9-8.375l-.053-.239a.575.575,0,0,0-.583-.451H28.638a.621.621,0,0,0-.583.451L28,56.489a23.063,23.063,0,0,1-3.9,8.375.624.624,0,0,0-.08.53.525.525,0,0,0,.371.371c.583.212,1.193.371,1.8.53a18.837,18.837,0,0,0,2.862-5.8l.053-.186a.621.621,0,1,1,1.193.345l-.053.186a19.642,19.642,0,0,1-2.73,5.725,20.368,20.368,0,0,0,3.366.292,20.111,20.111,0,0,0,6.493-1.087.575.575,0,0,0,.371-.371A.624.624,0,0,0,37.675,64.864Z" transform="translate(0 -39.174)" fill="#80888f"/>
    <path id="Path_20480" data-name="Path 20480" d="M39.783,15.645h4.558a.588.588,0,0,0,.583-.583v-1.14a.588.588,0,0,0-.583-.583H43.016V3.454a.954.954,0,1,0-1.908,0v9.885H39.783a.588.588,0,0,0-.583.583v1.14A.588.588,0,0,0,39.783,15.645Z" transform="translate(-11.172)" fill="#80888f"/>
  </g>
</svg>
