<svg xmlns="http://www.w3.org/2000/svg" width="51.424" height="31.75" viewBox="0 0 51.424 31.75">
  <path id="Exclusion_16" data-name="Exclusion 16" d="M-11.453-9081.25a3.772,3.772,0,0,1-2.724-1.11,3.719,3.719,0,0,1-1.152-2.683l-3.648-1.755a9.39,9.39,0,0,0,.853-2.413l3.663,1.766a4.082,4.082,0,0,1,1.342-1.051,3.785,3.785,0,0,1,1.665-.377,3.8,3.8,0,0,1,2.748,1.11,3.667,3.667,0,0,1,1.131,2.7,3.681,3.681,0,0,1-1.131,2.7A3.773,3.773,0,0,1-11.453-9081.25Zm-16.73,0H-50.2a8.582,8.582,0,0,1-6.235-2.526A8.313,8.313,0,0,1-59-9089.91a8.278,8.278,0,0,1,1.4-4.667,9,9,0,0,1,3.693-3.178A13.7,13.7,0,0,0-49.9-9093.7a13.872,13.872,0,0,0,5.388,2.122,11.536,11.536,0,0,1-4.15-4.149,11.146,11.146,0,0,1-1.536-5.73,11.069,11.069,0,0,1,3.44-8.16,11.471,11.471,0,0,1,8.3-3.384,11.57,11.57,0,0,1,6.7,2.054A11.444,11.444,0,0,1-27.5-9105.6a13.044,13.044,0,0,0-7.843,4.422,12.483,12.483,0,0,0-3.117,8.389c0,.329.015.661.045.991a9.789,9.789,0,0,1,3.141-6.832,9.956,9.956,0,0,1,7.088-2.821,10.031,10.031,0,0,1,7.267,2.956,10.325,10.325,0,0,1,1.881,2.484l-3.1,1.48a3.873,3.873,0,0,0-2.24-.691,3.785,3.785,0,0,0-2.745,1.113,3.641,3.641,0,0,0-1.131,2.69,3.68,3.68,0,0,0,1.131,2.7,3.775,3.775,0,0,0,2.745,1.124,3.8,3.8,0,0,0,2.24-.716l3.157,1.519a10.256,10.256,0,0,1-1.94,2.594A10.034,10.034,0,0,1-28.183-9081.25Zm10.059-7.961h0l-2.513-1.213a3.848,3.848,0,0,0,.143-.992,3.828,3.828,0,0,0-.143-.989l2.489-1.2h0a9.334,9.334,0,0,0-.885-2.408l3.706-1.771a3.727,3.727,0,0,1,1.152-2.684,3.759,3.759,0,0,1,2.724-1.109,3.8,3.8,0,0,1,2.748,1.109,3.664,3.664,0,0,1,1.131,2.692,3.679,3.679,0,0,1-1.131,2.7,3.779,3.779,0,0,1-2.748,1.12,3.763,3.763,0,0,1-1.674-.388,4.067,4.067,0,0,1-1.333-1.042l-3.688,1.778h0a10.542,10.542,0,0,1,.237,2.257,10.616,10.616,0,0,1-.211,2.138Z" transform="translate(58.999 9113)" fill="#4280eb"/>
</svg>
