<svg xmlns="http://www.w3.org/2000/svg" width="28.846" height="28.845" viewBox="0 0 28.846 28.845">
  <g id="_x33__x2C__XD_x2C__Adobe" transform="translate(-0.001 0)">
    <g id="Group_10277" data-name="Group 10277" transform="translate(0.001 0)">
      <rect id="Rectangle_12992" data-name="Rectangle 12992" width="28.846" height="28.845" transform="translate(0 0)" fill="#ff26be"/>
      <rect id="Rectangle_12993" data-name="Rectangle 12993" width="26.307" height="26.307" transform="translate(1.269 1.269)" fill="#2e001f"/>
      <g id="Group_10276" data-name="Group 10276" transform="translate(5.413 7.722)">
        <g id="Group_10275" data-name="Group 10275" transform="translate(0)">
          <path id="Path_20115" data-name="Path 20115" d="M106.578,137.4h-2.253l-2.419,5.059L99.454,137.4H97.133l3.285,6.569-3.4,6.726H99.31l2.462-5.155,2.491,5.155h2.483l-3.507-6.805Zm6.229,0v3.38h-.649a4.755,4.755,0,0,0-4.894,5.079c0,2.821,1.43,4.942,4.475,4.942a5.87,5.87,0,0,0,3.3-.776V137.4Zm0,11.459a2.372,2.372,0,0,1-.862.113c-.606,0-2.463-.267-2.463-3.212s2.135-3.182,2.648-3.182a1.093,1.093,0,0,1,.677.144v6.137Z" transform="translate(-97.016 -137.396)" fill="#ffd9f2"/>
        </g>
      </g>
    </g>
  </g>
</svg>
