<svg xmlns="http://www.w3.org/2000/svg" width="34.314" height="34.314" viewBox="0 0 34.314 34.314">
  <g id="_8685942_ic_fluent_image_alt_text_icon" data-name="8685942_ic_fluent_image_alt_text_icon" transform="translate(-1 -1)">
    <path id="Path_20111" data-name="Path 20111" d="M1,5.289A4.289,4.289,0,0,1,5.289,1H16.013A4.289,4.289,0,0,1,20.3,5.289v8.579a4.289,4.289,0,0,1-4.289,4.289H5.289A4.289,4.289,0,0,1,1,13.868ZM5.289,12.8a1.072,1.072,0,0,0,1.072,1.072H14.94a1.072,1.072,0,0,0,0-2.145H6.362A1.072,1.072,0,0,0,5.289,12.8ZM6.362,5.289a1.072,1.072,0,1,0,0,2.145H14.94a1.072,1.072,0,1,0,0-2.145Z" fill="#c488de"/>
    <path id="Path_20112" data-name="Path 20112" d="M13.072,9.145A1.072,1.072,0,1,0,12,8.072,1.072,1.072,0,0,0,13.072,9.145Z" transform="translate(12.591 6.868)" fill="#c488de"/>
    <path id="Path_20113" data-name="Path 20113" d="M3,18.013H13.723a6.434,6.434,0,0,0,6.434-6.434V3h6.434a6.434,6.434,0,0,1,6.434,6.434V26.591a6.4,6.4,0,0,1-1.2,3.736L20.27,18.944a3.217,3.217,0,0,0-4.514,0L4.2,30.327A6.4,6.4,0,0,1,3,26.591Zm20.374-2.145a3.217,3.217,0,1,0-3.217-3.217A3.217,3.217,0,0,0,23.374,15.868Z" transform="translate(2.289 2.289)" fill="#c488de"/>
    <path id="Path_20114" data-name="Path 20114" d="M4.265,22.68a6.405,6.405,0,0,0,3.72,1.184H25.143a6.406,6.406,0,0,0,3.72-1.184L17.316,11.312a1.072,1.072,0,0,0-1.5,0Z" transform="translate(3.738 11.45)" fill="#c488de"/>
  </g>
</svg>
