<svg xmlns="http://www.w3.org/2000/svg" width="34.4" height="29.304" viewBox="0 0 34.4 29.304">
  <g id="images" transform="translate(-5.625 -7.875)">
    <path id="Path_20116" data-name="Path 20116" d="M35.112,7.875H10.562a4.925,4.925,0,0,0-4.937,4.884V32.3a4.926,4.926,0,0,0,4.937,4.884H35.089A4.836,4.836,0,0,0,40.025,32.4V12.759a4.9,4.9,0,0,0-4.914-4.884ZM28.968,12.76a3.663,3.663,0,1,1-3.685,3.663,3.663,3.663,0,0,1,3.685-3.663ZM10.529,34.738A2.387,2.387,0,0,1,8.151,32.3V27.134l7.2-6.434a3.706,3.706,0,0,1,5.052.146l4.989,4.946-9,8.945ZM37.478,32.3a2.442,2.442,0,0,1-2.445,2.442H19.879L29.2,25.474a3.682,3.682,0,0,1,4.733-.012l3.543,3.006Z" transform="translate(0 0)" fill="#57a9f6"/>
  </g>
</svg>
