<svg xmlns="http://www.w3.org/2000/svg" width="20.916" height="20.916" viewBox="0 0 20.916 20.916"><g id="vuesax_linear_folder-open" data-name="vuesax/linear/folder-open" transform="translate(-492 -188)"><g id="folder-open" transform="translate(492 188)"><path id="Vector" d="M16.867,2.876l-.349,4.358c-.131,1.333-.235,2.353-2.6,2.353H2.958C.6,9.587.492,8.567.361,7.233L.012,2.876A2.641,2.641,0,0,1,.579.967L.6.95A2.592,2.592,0,0,1,2.61,0H14.27a2.584,2.584,0,0,1,2,.933c.009.009.017.017.017.026A2.549,2.549,0,0,1,16.867,2.876Z" transform="translate(2.018 9.587)" fill="none" stroke="#989fa7" stroke-width="1.5"></path><path id="Vector-2" data-name="Vector" d="M0,8.192V3.7C0,.741.741,0,3.7,0H4.811A1.758,1.758,0,0,1,6.589.889L7.7,2.37a1.178,1.178,0,0,0,1.185.593H11.1c2.963,0,3.7.741,3.7,3.7v1.56" transform="translate(3.05 1.769)" fill="none" stroke="#989fa7" stroke-linecap="round" stroke-linejoin="round" stroke-width="1.5"></path><path id="Vector-3" data-name="Vector" d="M0,0H4.48" transform="translate(8.218 14.816)" fill="none" stroke="#989fa7" stroke-linecap="round" stroke-linejoin="round" stroke-width="1.5"></path><path id="Vector-4" data-name="Vector" d="M0,0H20.916V20.916H0Z" transform="translate(20.916 20.916) rotate(180)" fill="none" opacity="0"></path></g></g></svg>