<svg xmlns="http://www.w3.org/2000/svg" width="17.873" height="20.852" viewBox="0 0 17.873 20.852"><g id="file-text" transform="translate(-4.5 -2.25)"><path id="Path_19886" data-name="Path 19886" d="M7.479,2.25H19.394a2.979,2.979,0,0,1,2.979,2.979V20.123A2.979,2.979,0,0,1,19.394,23.1H7.479A2.979,2.979,0,0,1,4.5,20.123V5.229A2.979,2.979,0,0,1,7.479,2.25Zm0,1.489A1.489,1.489,0,0,0,5.989,5.229V20.123a1.489,1.489,0,0,0,1.489,1.489H19.394a1.489,1.489,0,0,0,1.489-1.489V5.229a1.489,1.489,0,0,0-1.489-1.489Z" fill="#989fa7" fill-rule="evenodd"></path><path id="Path_19887" data-name="Path 19887" d="M10.125,18.681a.745.745,0,0,1,.745-.745h4.468a.745.745,0,1,1,0,1.489H10.87A.745.745,0,0,1,10.125,18.681Zm0-2.979a.745.745,0,0,1,.745-.745h8.937a.745.745,0,1,1,0,1.489H10.87A.745.745,0,0,1,10.125,15.7Zm0-2.979a.745.745,0,0,1,.745-.745h8.937a.745.745,0,1,1,0,1.489H10.87A.745.745,0,0,1,10.125,12.724Zm0-2.979A.745.745,0,0,1,10.87,9h8.937a.745.745,0,1,1,0,1.489H10.87A.745.745,0,0,1,10.125,9.745Z" transform="translate(-1.901 -2.282)" fill="#989fa7" fill-rule="evenodd"></path></g></svg>