<svg xmlns="http://www.w3.org/2000/svg" width="22.799" height="22.799" viewBox="0 0 22.799 22.799"><g id="noun_ftp_4307730" transform="translate(-1 -1)"><path id="Path_19894" data-name="Path 19894" d="M23.039,20H15.331a3.035,3.035,0,0,0-2.172-2.172V13.919h4.56A2.282,2.282,0,0,0,20,11.639V5.56a2.282,2.282,0,0,0-2.28-2.28H12.169a.765.765,0,0,1-.537-.223l-1.39-1.389A2.266,2.266,0,0,0,8.629,1H7.08A2.282,2.282,0,0,0,4.8,3.28v8.36a2.282,2.282,0,0,0,2.28,2.28h4.56v3.908A3.035,3.035,0,0,0,9.467,20H1.76a.76.76,0,1,0,0,1.52H9.467a3.025,3.025,0,0,0,5.864,0h7.708a.76.76,0,1,0,0-1.52ZM6.32,11.639V3.28a.76.76,0,0,1,.76-.76h1.55a.765.765,0,0,1,.537.223l1.39,1.389a2.266,2.266,0,0,0,1.612.668h5.551a.76.76,0,0,1,.76.76v6.08a.76.76,0,0,1-.76.76H7.08A.76.76,0,0,1,6.32,11.639ZM12.4,22.279a1.52,1.52,0,1,1,1.52-1.52A1.52,1.52,0,0,1,12.4,22.279Z" transform="translate(0 0)" fill="#989fa7"></path><path id="Path_19895" data-name="Path 19895" d="M18.76,13.52h1.52a.76.76,0,1,0,0-1.52H18.76a.76.76,0,0,0,0,1.52Z" transform="translate(-4.081 -2.64)" fill="#989fa7"></path></g></svg>