<svg xmlns="http://www.w3.org/2000/svg" width="20.602" height="16.284" viewBox="0 0 20.602 16.284"><g id="upload" transform="translate(0 -3.044)"><path id="Path_19890" data-name="Path 19890" d="M.644,11.6a.644.644,0,0,1,.644.644v4.507a1.288,1.288,0,0,0,1.288,1.288H18.026a1.288,1.288,0,0,0,1.288-1.288V12.247a.644.644,0,0,1,1.288,0v4.507a2.575,2.575,0,0,1-2.575,2.575H2.575A2.575,2.575,0,0,1,0,16.753V12.247A.644.644,0,0,1,.644,11.6ZM6.438,7.552a.644.644,0,0,0,.91,0L10.3,4.6l2.952,2.952a.644.644,0,1,0,.91-.91L10.756,3.234a.644.644,0,0,0-.912,0L6.438,6.641a.644.644,0,0,0,0,.912Z" fill="#989fa7" fill-rule="evenodd"></path><path id="Path_19891" data-name="Path 19891" d="M17.519,4.5a.644.644,0,0,1,.644.644v10.3a.644.644,0,0,1-1.288,0V5.144A.644.644,0,0,1,17.519,4.5Z" transform="translate(-7.218 -0.623)" fill="#989fa7" fill-rule="evenodd"></path></g></svg>