<svg xmlns="http://www.w3.org/2000/svg" width="23.111" height="23.111" viewBox="0 0 23.111 23.111"><g id="vuesax_outline_clock" data-name="vuesax/outline/clock" transform="translate(-172 -188)"><g id="clock" transform="translate(172 188)"><path id="Vector" d="M10.352,20.7A10.352,10.352,0,1,1,20.7,10.352,10.361,10.361,0,0,1,10.352,20.7Zm0-19.259a8.907,8.907,0,1,0,8.907,8.907A8.918,8.918,0,0,0,10.352,1.444Z" transform="translate(1.204 1.204)" fill="#989fa7"></path><path id="Vector-2" data-name="Vector" d="M4.642,8.83a.645.645,0,0,1-.366-.106L1.29,6.943A2.84,2.84,0,0,1,0,4.67V.722A.727.727,0,0,1,.722,0a.727.727,0,0,1,.722.722V4.67A1.423,1.423,0,0,0,2.032,5.7L5.017,7.482a.721.721,0,0,1,.25.992A.742.742,0,0,1,4.642,8.83Z" transform="translate(10.487 6.51)" fill="#989fa7"></path><path id="Vector-3" data-name="Vector" d="M0,0H23.111V23.111H0Z" fill="none" opacity="0"></path></g></g></svg>