<svg xmlns="http://www.w3.org/2000/svg" width="17.482" height="18.829" viewBox="0 0 17.482 18.829"><path id="share" d="M16.344,14.326A3.359,3.359,0,0,0,13.731,15.6l-4.91-3.07a3,3,0,0,0,0-1.773l4.91-3.07a3.359,3.359,0,1,0-.746-2.089,3.218,3.218,0,0,0,.134.887L8.21,9.55a3.359,3.359,0,1,0,0,4.178l4.91,3.07a3.218,3.218,0,0,0-.134.887,3.359,3.359,0,1,0,3.359-3.359Zm0-10.747a2.015,2.015,0,1,1-2.015,2.015A2.015,2.015,0,0,1,16.344,3.579ZM5.6,13.654a2.015,2.015,0,1,1,2.015-2.015A2.015,2.015,0,0,1,5.6,13.654ZM16.344,19.7a2.015,2.015,0,1,1,2.015-2.015A2.015,2.015,0,0,1,16.344,19.7Z" transform="translate(-2.221 -2.214)" fill="#989fa7"></path></svg>