<svg id="vuesax_linear_star" data-name="vuesax/linear/star" xmlns="http://www.w3.org/2000/svg" width="21.576" height="21.576" viewBox="0 0 21.576 21.576"><g id="star" transform="translate(0 0)"><path id="Vector" d="M10.544,1.288l1.582,3.164A1.954,1.954,0,0,0,13.4,5.4l2.868.476c1.834.306,2.265,1.636.944,2.949l-2.229,2.229a1.952,1.952,0,0,0-.467,1.627l.638,2.76c.5,2.185-.656,3.03-2.589,1.888L9.879,15.735a1.943,1.943,0,0,0-1.78,0L5.411,17.326c-1.924,1.142-3.093.288-2.589-1.888l.638-2.76a1.952,1.952,0,0,0-.467-1.627L.763,8.821c-1.313-1.313-.89-2.643.944-2.949L4.575,5.4a1.958,1.958,0,0,0,1.268-.944L7.425,1.288C8.288-.429,9.69-.429,10.544,1.288Z" transform="translate(1.799 1.868)" fill="none" stroke="#989fa7" stroke-linecap="round" stroke-linejoin="round" stroke-width="1.5"></path><path id="Vector-2" data-name="Vector" d="M0,0H21.576V21.576H0Z" fill="none" opacity="0"></path></g></svg>